<svg width="352" height="150" viewBox="0 0 352 150" fill="none" xmlns="http://www.w3.org/2000/svg">
<circle cx="65.9826" cy="74.7414" r="29.7414" fill="#001B48"/>
<rect x="53.5903" y="56.3154" width="4.33728" height="35.3179" rx="2.16864" transform="rotate(-27.7783 53.5903 56.3154)" fill="white"/>
<rect x="71.7266" y="89.6865" width="4.14806" height="4.30049" rx="2.07403" transform="rotate(-27.7783 71.7266 89.6865)" fill="white"/>
<path d="M130.948 69.828C130.948 71.34 130.54 72.708 129.724 73.932C128.908 75.156 127.72 76.056 126.16 76.632L131.668 87H122.74L118.348 77.964H115.396V87H107.44V62.232H122.596C124.372 62.232 125.884 62.58 127.132 63.276C128.404 63.948 129.352 64.872 129.976 66.048C130.624 67.2 130.948 68.46 130.948 69.828ZM122.848 70.152C122.848 69.504 122.632 68.964 122.2 68.532C121.768 68.1 121.24 67.884 120.616 67.884H115.396V72.456H120.616C121.24 72.456 121.768 72.24 122.2 71.808C122.632 71.352 122.848 70.8 122.848 70.152ZM143.87 67.56C147.35 67.56 150.002 68.376 151.826 70.008C153.674 71.64 154.598 74.136 154.598 77.496V78.72H140.342C140.342 80.088 140.642 81.12 141.242 81.816C141.866 82.512 142.838 82.86 144.158 82.86C145.358 82.86 146.234 82.608 146.786 82.104C147.362 81.6 147.65 80.928 147.65 80.088H154.598C154.598 82.392 153.722 84.192 151.97 85.488C150.218 86.784 147.662 87.432 144.302 87.432C140.774 87.432 138.038 86.616 136.094 84.984C134.15 83.328 133.178 80.832 133.178 77.496C133.178 74.232 134.126 71.76 136.022 70.08C137.918 68.4 140.534 67.56 143.87 67.56ZM144.158 72.132C141.902 72.132 140.642 73.2 140.378 75.336H147.362C147.362 74.352 147.074 73.572 146.498 72.996C145.946 72.42 145.166 72.132 144.158 72.132ZM162.144 87L154.944 67.992H162.648L166.14 79.836H166.392L169.884 67.992H176.94L169.668 87H162.144ZM179.364 65.76V60.9H186.528V65.76H179.364ZM179.364 87V67.992H186.528V87H179.364ZM200.928 67.56C204.408 67.56 207.06 68.376 208.884 70.008C210.732 71.64 211.656 74.136 211.656 77.496V78.72H197.4C197.4 80.088 197.7 81.12 198.3 81.816C198.924 82.512 199.896 82.86 201.216 82.86C202.416 82.86 203.292 82.608 203.844 82.104C204.42 81.6 204.708 80.928 204.708 80.088H211.656C211.656 82.392 210.78 84.192 209.028 85.488C207.276 86.784 204.72 87.432 201.36 87.432C197.832 87.432 195.096 86.616 193.152 84.984C191.208 83.328 190.236 80.832 190.236 77.496C190.236 74.232 191.184 71.76 193.08 70.08C194.976 68.4 197.592 67.56 200.928 67.56ZM201.216 72.132C198.96 72.132 197.7 73.2 197.436 75.336H204.42C204.42 74.352 204.132 73.572 203.556 72.996C203.004 72.42 202.224 72.132 201.216 72.132ZM232.968 87L230.016 76.416H229.872L226.884 87H219.9L212.952 67.992H220.656L223.536 79.224H223.788L226.776 67.992H233.904L236.784 79.224H237.036L239.952 67.992H246.936L239.952 87H232.968Z" fill="#001B48"/>
</svg>
