<svg width="352" height="825" viewBox="0 0 352 825" fill="none" xmlns="http://www.w3.org/2000/svg">
<circle cx="176" cy="358" r="80" fill="#001B48"/>
<rect x="142.667" y="308.438" width="11.6667" height="95" rx="5.5" transform="rotate(-27.7783 142.667 308.438)" fill="white"/>
<rect x="191.45" y="398.201" width="11.1577" height="11.5677" rx="5.5" transform="rotate(-27.7783 191.45 398.201)" fill="white"/>
<path d="M101.194 520.76V515.9H108.358V520.76H101.194ZM101.194 542V522.992H108.358V542H101.194ZM136.942 524.828C136.942 526.34 136.534 527.708 135.718 528.932C134.902 530.156 133.714 531.056 132.154 531.632L137.662 542H128.734L124.342 532.964H121.39V542H113.434V517.232H128.59C130.366 517.232 131.878 517.58 133.126 518.276C134.398 518.948 135.346 519.872 135.97 521.048C136.618 522.2 136.942 523.46 136.942 524.828ZM128.842 525.152C128.842 524.504 128.626 523.964 128.194 523.532C127.762 523.1 127.234 522.884 126.61 522.884H121.39V527.456H126.61C127.234 527.456 127.762 527.24 128.194 526.808C128.626 526.352 128.842 525.8 128.842 525.152ZM149.864 522.56C153.344 522.56 155.996 523.376 157.82 525.008C159.668 526.64 160.592 529.136 160.592 532.496V533.72H146.336C146.336 535.088 146.636 536.12 147.236 536.816C147.86 537.512 148.832 537.86 150.152 537.86C151.352 537.86 152.228 537.608 152.78 537.104C153.356 536.6 153.644 535.928 153.644 535.088H160.592C160.592 537.392 159.716 539.192 157.964 540.488C156.212 541.784 153.656 542.432 150.296 542.432C146.768 542.432 144.032 541.616 142.088 539.984C140.144 538.328 139.172 535.832 139.172 532.496C139.172 529.232 140.12 526.76 142.016 525.08C143.912 523.4 146.528 522.56 149.864 522.56ZM150.152 527.132C147.896 527.132 146.636 528.2 146.372 530.336H153.356C153.356 529.352 153.068 528.572 152.492 527.996C151.94 527.42 151.16 527.132 150.152 527.132ZM168.138 542L160.938 522.992H168.642L172.134 534.836H172.386L175.878 522.992H182.934L175.662 542H168.138ZM185.358 520.76V515.9H192.522V520.76H185.358ZM185.358 542V522.992H192.522V542H185.358ZM206.922 522.56C210.402 522.56 213.054 523.376 214.878 525.008C216.726 526.64 217.65 529.136 217.65 532.496V533.72H203.394C203.394 535.088 203.694 536.12 204.294 536.816C204.918 537.512 205.89 537.86 207.21 537.86C208.41 537.86 209.286 537.608 209.838 537.104C210.414 536.6 210.702 535.928 210.702 535.088H217.65C217.65 537.392 216.774 539.192 215.022 540.488C213.27 541.784 210.714 542.432 207.354 542.432C203.826 542.432 201.09 541.616 199.146 539.984C197.202 538.328 196.23 535.832 196.23 532.496C196.23 529.232 197.178 526.76 199.074 525.08C200.97 523.4 203.586 522.56 206.922 522.56ZM207.21 527.132C204.954 527.132 203.694 528.2 203.43 530.336H210.414C210.414 529.352 210.126 528.572 209.55 527.996C208.998 527.42 208.218 527.132 207.21 527.132ZM238.962 542L236.01 531.416H235.866L232.878 542H225.894L218.946 522.992H226.65L229.53 534.224H229.782L232.77 522.992H239.898L242.778 534.224H243.03L245.946 522.992H252.93L245.946 542H238.962Z" fill="#001B48"/>
<path d="M243.305 280.189L245.368 271.937C238.049 250.912 249.42 242.113 256.132 240.409C260.473 238.687 268.33 238.884 271.335 239.243C297.302 245.97 291.625 271.937 282.951 279.651C273.551 288.01 255.908 282.341 250.929 278.978L243.305 280.189Z" fill="#001B48"/>
<path d="M284.449 243.379C280.346 240.834 272.926 239.154 269.816 239.184C274.023 239.558 281.705 243.825 284.266 246.414C286.95 249.127 291.253 256.963 289.753 263.997C289.473 267.348 288.325 272.968 284.815 277.296C282.014 280.748 277.76 283.329 272.606 283.633C287.165 282.776 292.451 270.274 293.274 263.997C293.868 254.402 289.341 246.414 284.449 243.379Z" fill="#001B48" fill-opacity="0.75"/>
<g filter="url(#filter0_i_330_318)">
<circle cx="254.203" cy="261.622" r="4.21567" fill="white"/>
</g>
<g filter="url(#filter1_i_330_318)">
<circle cx="263.801" cy="261.622" r="4.21567" fill="white"/>
</g>
<g filter="url(#filter2_i_330_318)">
<circle cx="274.295" cy="261.622" r="4.21567" fill="white"/>
</g>
<path d="M96.1242 447.629L94.8406 442.494C99.3947 429.412 92.3198 423.937 88.1433 422.877C85.4421 421.805 80.5531 421.928 78.6835 422.151C62.5264 426.337 66.059 442.494 71.456 447.294C77.305 452.495 88.2829 448.968 91.3803 446.875L96.1242 447.629Z" fill="#001B48"/>
<path d="M70.5238 424.725C73.0765 423.141 77.6937 422.096 79.6284 422.114C77.0109 422.347 72.231 425.002 70.6377 426.613C68.9676 428.301 66.2902 433.177 67.2234 437.553C67.3975 439.639 68.1121 443.136 70.2962 445.828C72.0389 447.977 74.6857 449.583 77.8929 449.771C68.8338 449.238 65.5448 441.46 65.0326 437.553C64.6628 431.583 67.4795 426.613 70.5238 424.725Z" fill="#001B48" fill-opacity="0.75"/>
<g filter="url(#filter3_i_330_318)">
<circle r="2.62309" transform="matrix(-1 0 0 1 89.3432 436.076)" fill="white"/>
</g>
<g filter="url(#filter4_i_330_318)">
<circle r="2.62309" transform="matrix(-1 0 0 1 83.3715 436.076)" fill="white"/>
</g>
<g filter="url(#filter5_i_330_318)">
<circle r="2.62309" transform="matrix(-1 0 0 1 76.8418 436.076)" fill="white"/>
</g>
<path d="M102.124 300.629L100.841 295.494C105.395 282.412 98.3198 276.937 94.1433 275.877C91.4421 274.805 86.5531 274.928 84.6835 275.151C68.5264 279.337 72.059 295.494 77.456 300.294C83.305 305.495 94.2829 301.968 97.3803 299.875L102.124 300.629Z" fill="#001B48"/>
<path d="M76.5238 277.725C79.0765 276.141 83.6937 275.096 85.6284 275.114C83.0109 275.347 78.231 278.002 76.6377 279.613C74.9676 281.301 72.2902 286.177 73.2234 290.553C73.3975 292.639 74.1121 296.136 76.2962 298.828C78.0389 300.977 80.6857 302.583 83.8929 302.771C74.8338 302.238 71.5448 294.46 71.0326 290.553C70.6628 284.583 73.4795 279.613 76.5238 277.725Z" fill="#001B48" fill-opacity="0.75"/>
<path d="M233 458C231.9 458 230.958 457.608 230.175 456.825C229.392 456.042 229 455.1 229 454C229 452.9 229.392 451.958 230.175 451.175C230.958 450.392 231.9 450 233 450C234.1 450 235.042 450.392 235.825 451.175C236.608 451.958 237 452.9 237 454C237 455.1 236.608 456.042 235.825 456.825C235.042 457.608 234.1 458 233 458ZM242.5 454C240.967 454 239.667 453.467 238.6 452.4C237.533 451.333 237 450.033 237 448.5C237 446.967 237.533 445.667 238.6 444.6C239.667 443.533 240.967 443 242.5 443C244.033 443 245.333 443.533 246.4 444.6C247.467 445.667 248 446.967 248 448.5C248 450.033 247.467 451.333 246.4 452.4C245.333 453.467 244.033 454 242.5 454ZM240.5 461C239.667 461 238.958 460.708 238.375 460.125C237.792 459.542 237.5 458.833 237.5 458C237.5 457.167 237.792 456.458 238.375 455.875C238.958 455.292 239.667 455 240.5 455C241.333 455 242.042 455.292 242.625 455.875C243.208 456.458 243.5 457.167 243.5 458C243.5 458.833 243.208 459.542 242.625 460.125C242.042 460.708 241.333 461 240.5 461Z" fill="#001B48"/>
<path d="M295.803 375.834C292.66 375.834 289.973 378.075 288.497 379.62C287.021 378.075 284.34 375.834 281.198 375.834C275.781 375.834 272 379.609 272 385.014C272 390.969 276.696 394.818 281.24 398.541C283.385 400.3 285.605 402.118 287.307 404.134C287.594 404.472 288.014 404.667 288.455 404.667H288.542C288.984 404.667 289.403 404.47 289.688 404.134C291.393 402.118 293.612 400.299 295.759 398.541C300.301 394.819 305 390.97 305 385.014C305 379.609 301.218 375.834 295.803 375.834Z" fill="#001B48"/>
<g clip-path="url(#clip0_330_318)">
<path d="M147.595 473.373L155.001 473.001M162.406 472.629L155 473M155 473L154.629 465.596M155.001 473.001L155.373 480.406" stroke="#001B48" stroke-width="1.5" stroke-linecap="round" stroke-linejoin="round"/>
</g>
<path d="M61 376C59.9 376 58.9583 375.608 58.175 374.825C57.3917 374.042 57 373.1 57 372C57 370.9 57.3917 369.958 58.175 369.175C58.9583 368.392 59.9 368 61 368C62.1 368 63.0417 368.392 63.825 369.175C64.6083 369.958 65 370.9 65 372C65 373.1 64.6083 374.042 63.825 374.825C63.0417 375.608 62.1 376 61 376ZM61 374C61.55 374 62.0207 373.804 62.412 373.412C62.804 373.021 63 372.55 63 372C63 371.45 62.804 370.979 62.412 370.587C62.0207 370.196 61.55 370 61 370C60.45 370 59.9793 370.196 59.588 370.587C59.196 370.979 59 371.45 59 372C59 372.55 59.196 373.021 59.588 373.412C59.9793 373.804 60.45 374 61 374ZM70.5 372C68.9667 372 67.6667 371.467 66.6 370.4C65.5333 369.333 65 368.033 65 366.5C65 364.967 65.5333 363.667 66.6 362.6C67.6667 361.533 68.9667 361 70.5 361C72.0333 361 73.3333 361.533 74.4 362.6C75.4667 363.667 76 364.967 76 366.5C76 368.033 75.4667 369.333 74.4 370.4C73.3333 371.467 72.0333 372 70.5 372ZM68.5 379C67.6667 379 66.9583 378.708 66.375 378.125C65.7917 377.542 65.5 376.833 65.5 376C65.5 375.167 65.7917 374.458 66.375 373.875C66.9583 373.292 67.6667 373 68.5 373C69.3333 373 70.0417 373.292 70.625 373.875C71.2083 374.458 71.5 375.167 71.5 376C71.5 376.833 71.2083 377.542 70.625 378.125C70.0417 378.708 69.3333 379 68.5 379ZM70.5 370C71.4833 370 72.3127 369.663 72.988 368.988C73.6627 368.313 74 367.483 74 366.5C74 365.517 73.6627 364.687 72.988 364.012C72.3127 363.337 71.4833 363 70.5 363C69.5167 363 68.6873 363.337 68.012 364.012C67.3373 364.687 67 365.517 67 366.5C67 367.483 67.3373 368.313 68.012 368.988C68.6873 369.663 69.5167 370 70.5 370ZM68.5 377C68.7833 377 69.021 376.904 69.213 376.712C69.4043 376.521 69.5 376.283 69.5 376C69.5 375.717 69.4043 375.479 69.213 375.288C69.021 375.096 68.7833 375 68.5 375C68.2167 375 67.9793 375.096 67.788 375.288C67.596 375.479 67.5 375.717 67.5 376C67.5 376.283 67.596 376.521 67.788 376.712C67.9793 376.904 68.2167 377 68.5 377Z" fill="#001B48"/>
<path d="M297.626 331.123C298.078 330.645 298.427 330.079 298.649 329.46C298.872 328.841 298.965 328.183 298.922 327.527C298.878 326.87 298.7 326.23 298.397 325.646C298.095 325.062 297.675 324.546 297.164 324.132C296.653 323.718 296.062 323.414 295.428 323.238C294.794 323.063 294.131 323.021 293.48 323.114C292.829 323.207 292.204 323.434 291.644 323.78C291.085 324.125 290.603 324.583 290.229 325.124C290.048 324.645 289.754 324.217 289.373 323.875C288.991 323.534 288.533 323.29 288.037 323.163C287.541 323.036 287.022 323.031 286.524 323.147C286.025 323.263 285.562 323.498 285.173 323.832C284.785 324.165 284.483 324.587 284.292 325.062C284.101 325.537 284.027 326.051 284.078 326.561C284.128 327.07 284.3 327.56 284.579 327.989C284.859 328.418 285.237 328.773 285.683 329.025C285.275 329.3 284.925 329.654 284.654 330.066C284.383 330.478 284.197 330.939 284.106 331.424C284.016 331.908 284.022 332.406 284.126 332.888C284.229 333.37 284.428 333.826 284.709 334.231C284.991 334.636 285.35 334.98 285.766 335.245C286.182 335.509 286.647 335.688 287.133 335.771C287.618 335.854 288.116 335.84 288.596 335.729C289.077 335.618 289.53 335.413 289.93 335.125C290.025 335.933 290.425 336.674 291.048 337.196C291.672 337.718 292.471 337.982 293.283 337.934C294.094 337.886 294.857 337.53 295.415 336.938C295.972 336.346 296.282 335.563 296.281 334.75C296.281 334.686 296.275 334.623 296.272 334.559C296.501 334.671 296.752 334.734 297.007 334.745C297.262 334.756 297.517 334.714 297.755 334.621C297.993 334.528 298.21 334.388 298.391 334.207C298.572 334.027 298.714 333.811 298.808 333.574C298.901 333.336 298.945 333.082 298.935 332.826C298.926 332.571 298.864 332.32 298.753 332.09C298.642 331.86 298.485 331.655 298.291 331.489C298.097 331.322 297.871 331.198 297.626 331.123ZM294.156 324.125C294.892 324.125 295.611 324.343 296.222 324.752C296.834 325.161 297.31 325.741 297.592 326.421C297.873 327.1 297.947 327.848 297.804 328.57C297.66 329.291 297.306 329.954 296.786 330.474C296.266 330.994 295.603 331.348 294.882 331.491C294.16 331.635 293.413 331.561 292.733 331.28C292.054 330.998 291.473 330.522 291.064 329.91C290.656 329.299 290.438 328.58 290.438 327.844C290.439 326.858 290.831 325.913 291.528 325.216C292.225 324.519 293.17 324.126 294.156 324.125ZM287.25 324.125C287.67 324.125 288.081 324.25 288.431 324.483C288.78 324.717 289.052 325.049 289.213 325.437C289.374 325.825 289.416 326.253 289.334 326.665C289.252 327.077 289.05 327.456 288.753 327.753C288.455 328.05 288.077 328.252 287.665 328.334C287.252 328.416 286.825 328.374 286.437 328.214C286.049 328.053 285.717 327.78 285.483 327.431C285.25 327.081 285.125 326.671 285.125 326.25C285.126 325.687 285.35 325.147 285.748 324.748C286.147 324.35 286.687 324.126 287.25 324.125ZM293.094 336.875C292.673 336.875 292.263 336.751 291.913 336.517C291.564 336.284 291.291 335.952 291.131 335.564C290.97 335.175 290.928 334.748 291.01 334.336C291.092 333.924 291.294 333.545 291.591 333.248C291.888 332.951 292.267 332.748 292.679 332.666C293.091 332.584 293.519 332.626 293.907 332.787C294.295 332.948 294.627 333.22 294.861 333.57C295.094 333.919 295.219 334.33 295.219 334.75C295.218 335.314 294.994 335.854 294.596 336.252C294.197 336.651 293.657 336.875 293.094 336.875Z" fill="#001B48"/>
<path d="M84.6042 291.708C84.7866 291.708 84.9615 291.781 85.0904 291.91C85.2193 292.039 85.2917 292.213 85.2917 292.396C85.2917 292.578 85.2193 292.753 85.0904 292.882C84.9615 293.011 84.7866 293.083 84.6042 293.083C84.4219 293.083 84.247 293.011 84.1181 292.882C83.9892 292.753 83.9167 292.578 83.9167 292.396C83.9167 292.213 83.9892 292.039 84.1181 291.91C84.247 291.781 84.4219 291.708 84.6042 291.708ZM86.8959 290.333C87.1998 290.333 87.4913 290.454 87.7061 290.669C87.921 290.884 88.0417 291.175 88.0417 291.479C88.0417 291.783 87.921 292.075 87.7061 292.289C87.4913 292.504 87.1998 292.625 86.8959 292.625C86.592 292.625 86.3006 292.504 86.0857 292.289C85.8708 292.075 85.7501 291.783 85.7501 291.479C85.7501 291.175 85.8708 290.884 86.0857 290.669C86.3006 290.454 86.592 290.333 86.8959 290.333ZM89.6459 289.875C89.1005 289.875 88.6055 289.646 88.2709 289.256C87.9363 289.646 87.4413 289.875 86.8959 289.875C85.9976 289.875 85.2505 289.229 85.0947 288.381C84.7485 288.247 84.4509 288.012 84.2407 287.706C84.0305 287.4 83.9176 287.038 83.9167 286.667C83.9167 286.18 84.1099 285.714 84.4537 285.37C84.7975 285.026 85.2639 284.833 85.7501 284.833C85.8692 284.833 85.9792 284.847 86.103 284.865C86.4376 284.563 86.873 284.375 87.3542 284.375C87.8997 284.375 88.3947 284.604 88.7292 284.994C89.0638 284.604 89.5588 284.375 90.1042 284.375C91.0026 284.375 91.7497 285.021 91.9055 285.869C92.2516 286.003 92.5493 286.238 92.7595 286.544C92.9696 286.85 93.0825 287.212 93.0834 287.583C93.0834 288.07 92.8903 288.536 92.5464 288.88C92.2026 289.224 91.7363 289.417 91.2501 289.417L90.8972 289.385C90.5626 289.687 90.1272 289.875 89.6459 289.875Z" fill="white"/>
<path d="M149.333 258H150.667V240.667H149.333C148.626 240.667 147.948 240.948 147.448 241.448C146.948 241.948 146.667 242.626 146.667 243.334V255.334C146.667 256.041 146.948 256.719 147.448 257.219C147.948 257.719 148.626 258 149.333 258ZM170.667 240.667H161.333L162.829 236.176C162.963 235.776 162.999 235.349 162.936 234.931C162.872 234.514 162.71 234.117 162.463 233.774C162.216 233.432 161.891 233.153 161.515 232.96C161.139 232.768 160.723 232.667 160.3 232.667H160L153.333 239.918V258H168L173.216 246.539L173.333 246V243.334C173.333 242.626 173.052 241.948 172.552 241.448C172.052 240.948 171.374 240.667 170.667 240.667Z" fill="#001B48"/>
<rect x="98" y="-9" width="166" height="53" rx="10" fill="#001B48"/>
<rect x="89" y="819" width="174" height="6" rx="3" fill="black"/>
<rect x="141" y="20" width="80" height="5" rx="2.5" fill="white"/>
<circle cx="180.5" cy="22.5" r="2.5" fill="white"/>
<defs>
<filter id="filter0_i_330_318" x="249.988" y="257.406" width="8.4314" height="8.43164" filterUnits="userSpaceOnUse" color-interpolation-filters="sRGB">
<feFlood flood-opacity="0" result="BackgroundImageFix"/>
<feBlend mode="normal" in="SourceGraphic" in2="BackgroundImageFix" result="shape"/>
<feColorMatrix in="SourceAlpha" type="matrix" values="0 0 0 0 0 0 0 0 0 0 0 0 0 0 0 0 0 0 127 0" result="hardAlpha"/>
<feOffset dx="-22"/>
<feGaussianBlur stdDeviation="2"/>
<feComposite in2="hardAlpha" operator="arithmetic" k2="-1" k3="1"/>
<feColorMatrix type="matrix" values="0 0 0 0 0 0 0 0 0 0 0 0 0 0 0 0 0 0 0.25 0"/>
<feBlend mode="normal" in2="shape" result="effect1_innerShadow_330_318"/>
</filter>
<filter id="filter1_i_330_318" x="259.585" y="257.406" width="8.4314" height="8.43164" filterUnits="userSpaceOnUse" color-interpolation-filters="sRGB">
<feFlood flood-opacity="0" result="BackgroundImageFix"/>
<feBlend mode="normal" in="SourceGraphic" in2="BackgroundImageFix" result="shape"/>
<feColorMatrix in="SourceAlpha" type="matrix" values="0 0 0 0 0 0 0 0 0 0 0 0 0 0 0 0 0 0 127 0" result="hardAlpha"/>
<feOffset dx="-20"/>
<feGaussianBlur stdDeviation="2"/>
<feComposite in2="hardAlpha" operator="arithmetic" k2="-1" k3="1"/>
<feColorMatrix type="matrix" values="0 0 0 0 0 0 0 0 0 0 0 0 0 0 0 0 0 0 0.25 0"/>
<feBlend mode="normal" in2="shape" result="effect1_innerShadow_330_318"/>
</filter>
<filter id="filter2_i_330_318" x="270.079" y="257.406" width="8.4314" height="8.43164" filterUnits="userSpaceOnUse" color-interpolation-filters="sRGB">
<feFlood flood-opacity="0" result="BackgroundImageFix"/>
<feBlend mode="normal" in="SourceGraphic" in2="BackgroundImageFix" result="shape"/>
<feColorMatrix in="SourceAlpha" type="matrix" values="0 0 0 0 0 0 0 0 0 0 0 0 0 0 0 0 0 0 127 0" result="hardAlpha"/>
<feOffset dx="-19" dy="-13"/>
<feGaussianBlur stdDeviation="2"/>
<feComposite in2="hardAlpha" operator="arithmetic" k2="-1" k3="1"/>
<feColorMatrix type="matrix" values="0 0 0 0 0 0 0 0 0 0 0 0 0 0 0 0 0 0 0.25 0"/>
<feBlend mode="normal" in2="shape" result="effect1_innerShadow_330_318"/>
</filter>
<filter id="filter3_i_330_318" x="86.7202" y="433.453" width="5.24609" height="5.24609" filterUnits="userSpaceOnUse" color-interpolation-filters="sRGB">
<feFlood flood-opacity="0" result="BackgroundImageFix"/>
<feBlend mode="normal" in="SourceGraphic" in2="BackgroundImageFix" result="shape"/>
<feColorMatrix in="SourceAlpha" type="matrix" values="0 0 0 0 0 0 0 0 0 0 0 0 0 0 0 0 0 0 127 0" result="hardAlpha"/>
<feOffset dx="-22"/>
<feGaussianBlur stdDeviation="2"/>
<feComposite in2="hardAlpha" operator="arithmetic" k2="-1" k3="1"/>
<feColorMatrix type="matrix" values="0 0 0 0 0 0 0 0 0 0 0 0 0 0 0 0 0 0 0.25 0"/>
<feBlend mode="normal" in2="shape" result="effect1_innerShadow_330_318"/>
</filter>
<filter id="filter4_i_330_318" x="80.7485" y="433.453" width="5.24609" height="5.24609" filterUnits="userSpaceOnUse" color-interpolation-filters="sRGB">
<feFlood flood-opacity="0" result="BackgroundImageFix"/>
<feBlend mode="normal" in="SourceGraphic" in2="BackgroundImageFix" result="shape"/>
<feColorMatrix in="SourceAlpha" type="matrix" values="0 0 0 0 0 0 0 0 0 0 0 0 0 0 0 0 0 0 127 0" result="hardAlpha"/>
<feOffset dx="-20"/>
<feGaussianBlur stdDeviation="2"/>
<feComposite in2="hardAlpha" operator="arithmetic" k2="-1" k3="1"/>
<feColorMatrix type="matrix" values="0 0 0 0 0 0 0 0 0 0 0 0 0 0 0 0 0 0 0.25 0"/>
<feBlend mode="normal" in2="shape" result="effect1_innerShadow_330_318"/>
</filter>
<filter id="filter5_i_330_318" x="74.2188" y="433.453" width="5.24609" height="5.24609" filterUnits="userSpaceOnUse" color-interpolation-filters="sRGB">
<feFlood flood-opacity="0" result="BackgroundImageFix"/>
<feBlend mode="normal" in="SourceGraphic" in2="BackgroundImageFix" result="shape"/>
<feColorMatrix in="SourceAlpha" type="matrix" values="0 0 0 0 0 0 0 0 0 0 0 0 0 0 0 0 0 0 127 0" result="hardAlpha"/>
<feOffset dx="-19" dy="-13"/>
<feGaussianBlur stdDeviation="2"/>
<feComposite in2="hardAlpha" operator="arithmetic" k2="-1" k3="1"/>
<feColorMatrix type="matrix" values="0 0 0 0 0 0 0 0 0 0 0 0 0 0 0 0 0 0 0.25 0"/>
<feBlend mode="normal" in2="shape" result="effect1_innerShadow_330_318"/>
</filter>
<clipPath id="clip0_330_318">
<rect width="24" height="24" fill="white" transform="translate(154.149 456.051) rotate(42.1248)"/>
</clipPath>
</defs>
</svg>
