<svg width="390" height="844" viewBox="0 0 390 844" fill="none" xmlns="http://www.w3.org/2000/svg">
<g clip-path="url(#clip0_324_282)">
<rect width="390" height="844" rx="46" fill="white"/>
<circle cx="195" cy="358" r="80" fill="#001B48"/>
<rect x="161.667" y="308.438" width="11.6667" height="95" rx="5.5" transform="rotate(-27.7783 161.667 308.438)" fill="white"/>
<rect x="210.45" y="398.201" width="11.1577" height="11.5677" rx="5.5" transform="rotate(-27.7783 210.45 398.201)" fill="white"/>
<path d="M120.194 520.76V515.9H127.358V520.76H120.194ZM120.194 542V522.992H127.358V542H120.194ZM155.942 524.828C155.942 526.34 155.534 527.708 154.718 528.932C153.902 530.156 152.714 531.056 151.154 531.632L156.662 542H147.734L143.342 532.964H140.39V542H132.434V517.232H147.59C149.366 517.232 150.878 517.58 152.126 518.276C153.398 518.948 154.346 519.872 154.97 521.048C155.618 522.2 155.942 523.46 155.942 524.828ZM147.842 525.152C147.842 524.504 147.626 523.964 147.194 523.532C146.762 523.1 146.234 522.884 145.61 522.884H140.39V527.456H145.61C146.234 527.456 146.762 527.24 147.194 526.808C147.626 526.352 147.842 525.8 147.842 525.152ZM168.864 522.56C172.344 522.56 174.996 523.376 176.82 525.008C178.668 526.64 179.592 529.136 179.592 532.496V533.72H165.336C165.336 535.088 165.636 536.12 166.236 536.816C166.86 537.512 167.832 537.86 169.152 537.86C170.352 537.86 171.228 537.608 171.78 537.104C172.356 536.6 172.644 535.928 172.644 535.088H179.592C179.592 537.392 178.716 539.192 176.964 540.488C175.212 541.784 172.656 542.432 169.296 542.432C165.768 542.432 163.032 541.616 161.088 539.984C159.144 538.328 158.172 535.832 158.172 532.496C158.172 529.232 159.12 526.76 161.016 525.08C162.912 523.4 165.528 522.56 168.864 522.56ZM169.152 527.132C166.896 527.132 165.636 528.2 165.372 530.336H172.356C172.356 529.352 172.068 528.572 171.492 527.996C170.94 527.42 170.16 527.132 169.152 527.132ZM187.138 542L179.938 522.992H187.642L191.134 534.836H191.386L194.878 522.992H201.934L194.662 542H187.138ZM204.358 520.76V515.9H211.522V520.76H204.358ZM204.358 542V522.992H211.522V542H204.358ZM225.922 522.56C229.402 522.56 232.054 523.376 233.878 525.008C235.726 526.64 236.65 529.136 236.65 532.496V533.72H222.394C222.394 535.088 222.694 536.12 223.294 536.816C223.918 537.512 224.89 537.86 226.21 537.86C227.41 537.86 228.286 537.608 228.838 537.104C229.414 536.6 229.702 535.928 229.702 535.088H236.65C236.65 537.392 235.774 539.192 234.022 540.488C232.27 541.784 229.714 542.432 226.354 542.432C222.826 542.432 220.09 541.616 218.146 539.984C216.202 538.328 215.23 535.832 215.23 532.496C215.23 529.232 216.178 526.76 218.074 525.08C219.97 523.4 222.586 522.56 225.922 522.56ZM226.21 527.132C223.954 527.132 222.694 528.2 222.43 530.336H229.414C229.414 529.352 229.126 528.572 228.55 527.996C227.998 527.42 227.218 527.132 226.21 527.132ZM257.962 542L255.01 531.416H254.866L251.878 542H244.894L237.946 522.992H245.65L248.53 534.224H248.782L251.77 522.992H258.898L261.778 534.224H262.03L264.946 522.992H271.93L264.946 542H257.962Z" fill="#001B48"/>
<path d="M262.305 280.189L264.368 271.937C257.049 250.912 268.42 242.113 275.132 240.409C279.473 238.687 287.33 238.884 290.335 239.243C316.302 245.97 310.625 271.937 301.951 279.651C292.551 288.01 274.908 282.341 269.929 278.978L262.305 280.189Z" fill="#001B48"/>
<path d="M303.449 243.379C299.346 240.834 291.926 239.154 288.816 239.184C293.023 239.558 300.705 243.825 303.266 246.414C305.95 249.127 310.253 256.963 308.753 263.997C308.473 267.348 307.325 272.968 303.815 277.296C301.014 280.748 296.76 283.329 291.606 283.633C306.165 282.776 311.451 270.274 312.274 263.997C312.868 254.402 308.341 246.414 303.449 243.379Z" fill="#001B48" fill-opacity="0.75"/>
<g filter="url(#filter0_i_324_282)">
<circle cx="273.203" cy="261.622" r="4.21567" fill="white"/>
</g>
<g filter="url(#filter1_i_324_282)">
<circle cx="282.801" cy="261.622" r="4.21567" fill="white"/>
</g>
<g filter="url(#filter2_i_324_282)">
<circle cx="293.295" cy="261.622" r="4.21567" fill="white"/>
</g>
<path d="M115.124 447.629L113.841 442.494C118.395 429.412 111.32 423.937 107.143 422.877C104.442 421.805 99.5531 421.928 97.6835 422.151C81.5264 426.337 85.059 442.494 90.456 447.294C96.305 452.495 107.283 448.968 110.38 446.875L115.124 447.629Z" fill="#001B48"/>
<path d="M89.5238 424.725C92.0765 423.141 96.6937 422.096 98.6284 422.114C96.0109 422.347 91.231 425.002 89.6377 426.613C87.9676 428.301 85.2902 433.177 86.2234 437.553C86.3975 439.639 87.1121 443.136 89.2962 445.828C91.0389 447.977 93.6857 449.583 96.8929 449.771C87.8338 449.238 84.5448 441.46 84.0326 437.553C83.6628 431.583 86.4795 426.613 89.5238 424.725Z" fill="#001B48" fill-opacity="0.75"/>
<g filter="url(#filter3_i_324_282)">
<circle r="2.62309" transform="matrix(-1 0 0 1 108.343 436.076)" fill="white"/>
</g>
<g filter="url(#filter4_i_324_282)">
<circle r="2.62309" transform="matrix(-1 0 0 1 102.372 436.076)" fill="white"/>
</g>
<g filter="url(#filter5_i_324_282)">
<circle r="2.62309" transform="matrix(-1 0 0 1 95.8418 436.076)" fill="white"/>
</g>
<path d="M121.124 300.629L119.841 295.494C124.395 282.412 117.32 276.937 113.143 275.877C110.442 274.805 105.553 274.928 103.683 275.151C87.5264 279.337 91.059 295.494 96.456 300.294C102.305 305.495 113.283 301.968 116.38 299.875L121.124 300.629Z" fill="#001B48"/>
<path d="M95.5238 277.725C98.0765 276.141 102.694 275.096 104.628 275.114C102.011 275.347 97.231 278.002 95.6377 279.613C93.9676 281.301 91.2902 286.177 92.2234 290.553C92.3975 292.639 93.1121 296.136 95.2962 298.828C97.0389 300.977 99.6857 302.583 102.893 302.771C93.8338 302.238 90.5448 294.46 90.0326 290.553C89.6628 284.583 92.4795 279.613 95.5238 277.725Z" fill="#001B48" fill-opacity="0.75"/>
<path d="M252 458C250.9 458 249.958 457.608 249.175 456.825C248.392 456.042 248 455.1 248 454C248 452.9 248.392 451.958 249.175 451.175C249.958 450.392 250.9 450 252 450C253.1 450 254.042 450.392 254.825 451.175C255.608 451.958 256 452.9 256 454C256 455.1 255.608 456.042 254.825 456.825C254.042 457.608 253.1 458 252 458ZM261.5 454C259.967 454 258.667 453.467 257.6 452.4C256.533 451.333 256 450.033 256 448.5C256 446.967 256.533 445.667 257.6 444.6C258.667 443.533 259.967 443 261.5 443C263.033 443 264.333 443.533 265.4 444.6C266.467 445.667 267 446.967 267 448.5C267 450.033 266.467 451.333 265.4 452.4C264.333 453.467 263.033 454 261.5 454ZM259.5 461C258.667 461 257.958 460.708 257.375 460.125C256.792 459.542 256.5 458.833 256.5 458C256.5 457.167 256.792 456.458 257.375 455.875C257.958 455.292 258.667 455 259.5 455C260.333 455 261.042 455.292 261.625 455.875C262.208 456.458 262.5 457.167 262.5 458C262.5 458.833 262.208 459.542 261.625 460.125C261.042 460.708 260.333 461 259.5 461Z" fill="#001B48"/>
<path d="M314.803 375.834C311.659 375.834 308.973 378.075 307.497 379.62C306.021 378.075 303.34 375.834 300.198 375.834C294.781 375.834 291 379.609 291 385.014C291 390.969 295.696 394.818 300.24 398.541C302.385 400.3 304.605 402.118 306.307 404.134C306.594 404.472 307.014 404.667 307.455 404.667H307.542C307.984 404.667 308.403 404.47 308.688 404.134C310.393 402.118 312.612 400.299 314.759 398.541C319.301 394.819 324 390.97 324 385.014C324 379.609 320.218 375.834 314.803 375.834V375.834Z" fill="#001B48"/>
<g clip-path="url(#clip1_324_282)">
<path d="M166.595 473.373L174.001 473.001M181.406 472.629L174 473M174 473L173.629 465.596M174.001 473.001L174.373 480.406" stroke="#001B48" stroke-width="1.5" stroke-linecap="round" stroke-linejoin="round"/>
</g>
<path d="M80 376C78.9 376 77.9583 375.608 77.175 374.825C76.3917 374.042 76 373.1 76 372C76 370.9 76.3917 369.958 77.175 369.175C77.9583 368.392 78.9 368 80 368C81.1 368 82.0417 368.392 82.825 369.175C83.6083 369.958 84 370.9 84 372C84 373.1 83.6083 374.042 82.825 374.825C82.0417 375.608 81.1 376 80 376ZM80 374C80.55 374 81.0207 373.804 81.412 373.412C81.804 373.021 82 372.55 82 372C82 371.45 81.804 370.979 81.412 370.587C81.0207 370.196 80.55 370 80 370C79.45 370 78.9793 370.196 78.588 370.587C78.196 370.979 78 371.45 78 372C78 372.55 78.196 373.021 78.588 373.412C78.9793 373.804 79.45 374 80 374ZM89.5 372C87.9667 372 86.6667 371.467 85.6 370.4C84.5333 369.333 84 368.033 84 366.5C84 364.967 84.5333 363.667 85.6 362.6C86.6667 361.533 87.9667 361 89.5 361C91.0333 361 92.3333 361.533 93.4 362.6C94.4667 363.667 95 364.967 95 366.5C95 368.033 94.4667 369.333 93.4 370.4C92.3333 371.467 91.0333 372 89.5 372ZM87.5 379C86.6667 379 85.9583 378.708 85.375 378.125C84.7917 377.542 84.5 376.833 84.5 376C84.5 375.167 84.7917 374.458 85.375 373.875C85.9583 373.292 86.6667 373 87.5 373C88.3333 373 89.0417 373.292 89.625 373.875C90.2083 374.458 90.5 375.167 90.5 376C90.5 376.833 90.2083 377.542 89.625 378.125C89.0417 378.708 88.3333 379 87.5 379ZM89.5 370C90.4833 370 91.3127 369.663 91.988 368.988C92.6627 368.313 93 367.483 93 366.5C93 365.517 92.6627 364.687 91.988 364.012C91.3127 363.337 90.4833 363 89.5 363C88.5167 363 87.6873 363.337 87.012 364.012C86.3373 364.687 86 365.517 86 366.5C86 367.483 86.3373 368.313 87.012 368.988C87.6873 369.663 88.5167 370 89.5 370ZM87.5 377C87.7833 377 88.021 376.904 88.213 376.712C88.4043 376.521 88.5 376.283 88.5 376C88.5 375.717 88.4043 375.479 88.213 375.288C88.021 375.096 87.7833 375 87.5 375C87.2167 375 86.9793 375.096 86.788 375.288C86.596 375.479 86.5 375.717 86.5 376C86.5 376.283 86.596 376.521 86.788 376.712C86.9793 376.904 87.2167 377 87.5 377Z" fill="#001B48"/>
<path d="M316.626 331.123C317.078 330.645 317.427 330.079 317.649 329.46C317.872 328.841 317.965 328.183 317.922 327.527C317.878 326.87 317.7 326.23 317.397 325.646C317.095 325.062 316.675 324.546 316.164 324.132C315.653 323.718 315.062 323.414 314.428 323.238C313.794 323.063 313.131 323.021 312.48 323.114C311.829 323.207 311.204 323.434 310.644 323.78C310.085 324.125 309.603 324.583 309.229 325.124C309.048 324.645 308.754 324.217 308.373 323.875C307.991 323.534 307.533 323.29 307.037 323.163C306.541 323.036 306.022 323.031 305.524 323.147C305.025 323.263 304.562 323.498 304.173 323.832C303.785 324.165 303.483 324.587 303.292 325.062C303.101 325.537 303.027 326.051 303.078 326.561C303.128 327.07 303.3 327.56 303.579 327.989C303.859 328.418 304.237 328.773 304.683 329.025C304.275 329.3 303.925 329.654 303.654 330.066C303.383 330.478 303.197 330.939 303.106 331.424C303.016 331.908 303.022 332.406 303.126 332.888C303.229 333.37 303.428 333.826 303.709 334.231C303.991 334.636 304.35 334.98 304.766 335.245C305.182 335.509 305.647 335.688 306.133 335.771C306.618 335.854 307.116 335.84 307.596 335.729C308.077 335.618 308.53 335.413 308.93 335.125C309.025 335.933 309.425 336.674 310.048 337.196C310.672 337.718 311.471 337.982 312.283 337.934C313.094 337.886 313.857 337.53 314.415 336.938C314.972 336.346 315.282 335.563 315.281 334.75C315.281 334.686 315.275 334.623 315.272 334.559C315.501 334.671 315.752 334.734 316.007 334.745C316.262 334.756 316.517 334.714 316.755 334.621C316.993 334.528 317.21 334.388 317.391 334.207C317.572 334.027 317.714 333.811 317.808 333.574C317.901 333.336 317.945 333.082 317.935 332.826C317.926 332.571 317.864 332.32 317.753 332.09C317.642 331.86 317.485 331.655 317.291 331.489C317.097 331.322 316.871 331.198 316.626 331.123V331.123ZM313.156 324.125C313.892 324.125 314.611 324.343 315.222 324.752C315.834 325.161 316.31 325.741 316.592 326.421C316.873 327.1 316.947 327.848 316.804 328.57C316.66 329.291 316.306 329.954 315.786 330.474C315.266 330.994 314.603 331.348 313.882 331.491C313.16 331.635 312.413 331.561 311.733 331.28C311.054 330.998 310.473 330.522 310.064 329.91C309.656 329.299 309.438 328.58 309.438 327.844C309.439 326.858 309.831 325.913 310.528 325.216C311.225 324.519 312.17 324.126 313.156 324.125V324.125ZM306.25 324.125C306.67 324.125 307.081 324.25 307.431 324.483C307.78 324.717 308.052 325.049 308.213 325.437C308.374 325.825 308.416 326.253 308.334 326.665C308.252 327.077 308.05 327.456 307.753 327.753C307.455 328.05 307.077 328.252 306.665 328.334C306.252 328.416 305.825 328.374 305.437 328.214C305.049 328.053 304.717 327.78 304.483 327.431C304.25 327.081 304.125 326.671 304.125 326.25C304.126 325.687 304.35 325.147 304.748 324.748C305.147 324.35 305.687 324.126 306.25 324.125V324.125ZM312.094 336.875C311.673 336.875 311.263 336.751 310.913 336.517C310.564 336.284 310.291 335.952 310.131 335.564C309.97 335.175 309.928 334.748 310.01 334.336C310.092 333.924 310.294 333.545 310.591 333.248C310.888 332.951 311.267 332.748 311.679 332.666C312.091 332.584 312.519 332.626 312.907 332.787C313.295 332.948 313.627 333.22 313.861 333.57C314.094 333.919 314.219 334.33 314.219 334.75C314.218 335.314 313.994 335.854 313.596 336.252C313.197 336.651 312.657 336.875 312.094 336.875V336.875Z" fill="#001B48"/>
<path d="M103.604 291.708C103.787 291.708 103.961 291.781 104.09 291.91C104.219 292.039 104.292 292.213 104.292 292.396C104.292 292.578 104.219 292.753 104.09 292.882C103.961 293.011 103.787 293.083 103.604 293.083C103.422 293.083 103.247 293.011 103.118 292.882C102.989 292.753 102.917 292.578 102.917 292.396C102.917 292.213 102.989 292.039 103.118 291.91C103.247 291.781 103.422 291.708 103.604 291.708M105.896 290.333C106.2 290.333 106.491 290.454 106.706 290.669C106.921 290.884 107.042 291.175 107.042 291.479C107.042 291.783 106.921 292.075 106.706 292.289C106.491 292.504 106.2 292.625 105.896 292.625C105.592 292.625 105.301 292.504 105.086 292.289C104.871 292.075 104.75 291.783 104.75 291.479C104.75 291.175 104.871 290.884 105.086 290.669C105.301 290.454 105.592 290.333 105.896 290.333M108.646 289.875C108.1 289.875 107.605 289.646 107.271 289.256C106.936 289.646 106.441 289.875 105.896 289.875C104.998 289.875 104.25 289.229 104.095 288.381C103.749 288.247 103.451 288.012 103.241 287.706C103.031 287.4 102.918 287.038 102.917 286.667C102.917 286.18 103.11 285.714 103.454 285.37C103.798 285.026 104.264 284.833 104.75 284.833C104.869 284.833 104.979 284.847 105.103 284.865C105.438 284.563 105.873 284.375 106.354 284.375C106.9 284.375 107.395 284.604 107.729 284.994C108.064 284.604 108.559 284.375 109.104 284.375C110.003 284.375 110.75 285.021 110.905 285.869C111.252 286.003 111.549 286.238 111.759 286.544C111.97 286.85 112.083 287.212 112.083 287.583C112.083 288.07 111.89 288.536 111.546 288.88C111.203 289.224 110.736 289.417 110.25 289.417L109.897 289.385C109.563 289.687 109.127 289.875 108.646 289.875Z" fill="white"/>
<path d="M168.333 258H169.667V240.667H168.333C167.626 240.667 166.948 240.948 166.448 241.448C165.948 241.948 165.667 242.626 165.667 243.334V255.334C165.667 256.041 165.948 256.719 166.448 257.219C166.948 257.719 167.626 258 168.333 258ZM189.667 240.667H180.333L181.829 236.176C181.963 235.776 181.999 235.349 181.936 234.931C181.872 234.514 181.71 234.117 181.463 233.774C181.216 233.432 180.891 233.153 180.515 232.96C180.139 232.768 179.723 232.667 179.3 232.667H179L172.333 239.918V258H187L192.216 246.539L192.333 246V243.334C192.333 242.626 192.052 241.948 191.552 241.448C191.052 240.948 190.374 240.667 189.667 240.667V240.667Z" fill="#001B48"/>
<rect x="117" y="-9" width="166" height="53" rx="10" fill="#001B48"/>
<rect x="108" y="819" width="174" height="6" rx="3" fill="black"/>
<rect x="160" y="20" width="80" height="5" rx="2.5" fill="white"/>
<circle cx="199.5" cy="22.5" r="2.5" fill="white"/>
</g>
<rect x="3.5" y="3.5" width="383" height="837" rx="42.5" stroke="#001B48" stroke-width="7"/>
<defs>
<filter id="filter0_i_324_282" x="268.988" y="257.406" width="8.4314" height="8.43164" filterUnits="userSpaceOnUse" color-interpolation-filters="sRGB">
<feFlood flood-opacity="0" result="BackgroundImageFix"/>
<feBlend mode="normal" in="SourceGraphic" in2="BackgroundImageFix" result="shape"/>
<feColorMatrix in="SourceAlpha" type="matrix" values="0 0 0 0 0 0 0 0 0 0 0 0 0 0 0 0 0 0 127 0" result="hardAlpha"/>
<feOffset dx="-22"/>
<feGaussianBlur stdDeviation="2"/>
<feComposite in2="hardAlpha" operator="arithmetic" k2="-1" k3="1"/>
<feColorMatrix type="matrix" values="0 0 0 0 0 0 0 0 0 0 0 0 0 0 0 0 0 0 0.25 0"/>
<feBlend mode="normal" in2="shape" result="effect1_innerShadow_324_282"/>
</filter>
<filter id="filter1_i_324_282" x="278.585" y="257.406" width="8.4314" height="8.43164" filterUnits="userSpaceOnUse" color-interpolation-filters="sRGB">
<feFlood flood-opacity="0" result="BackgroundImageFix"/>
<feBlend mode="normal" in="SourceGraphic" in2="BackgroundImageFix" result="shape"/>
<feColorMatrix in="SourceAlpha" type="matrix" values="0 0 0 0 0 0 0 0 0 0 0 0 0 0 0 0 0 0 127 0" result="hardAlpha"/>
<feOffset dx="-20"/>
<feGaussianBlur stdDeviation="2"/>
<feComposite in2="hardAlpha" operator="arithmetic" k2="-1" k3="1"/>
<feColorMatrix type="matrix" values="0 0 0 0 0 0 0 0 0 0 0 0 0 0 0 0 0 0 0.25 0"/>
<feBlend mode="normal" in2="shape" result="effect1_innerShadow_324_282"/>
</filter>
<filter id="filter2_i_324_282" x="289.079" y="257.406" width="8.4314" height="8.43164" filterUnits="userSpaceOnUse" color-interpolation-filters="sRGB">
<feFlood flood-opacity="0" result="BackgroundImageFix"/>
<feBlend mode="normal" in="SourceGraphic" in2="BackgroundImageFix" result="shape"/>
<feColorMatrix in="SourceAlpha" type="matrix" values="0 0 0 0 0 0 0 0 0 0 0 0 0 0 0 0 0 0 127 0" result="hardAlpha"/>
<feOffset dx="-19" dy="-13"/>
<feGaussianBlur stdDeviation="2"/>
<feComposite in2="hardAlpha" operator="arithmetic" k2="-1" k3="1"/>
<feColorMatrix type="matrix" values="0 0 0 0 0 0 0 0 0 0 0 0 0 0 0 0 0 0 0.25 0"/>
<feBlend mode="normal" in2="shape" result="effect1_innerShadow_324_282"/>
</filter>
<filter id="filter3_i_324_282" x="105.72" y="433.453" width="5.24609" height="5.24609" filterUnits="userSpaceOnUse" color-interpolation-filters="sRGB">
<feFlood flood-opacity="0" result="BackgroundImageFix"/>
<feBlend mode="normal" in="SourceGraphic" in2="BackgroundImageFix" result="shape"/>
<feColorMatrix in="SourceAlpha" type="matrix" values="0 0 0 0 0 0 0 0 0 0 0 0 0 0 0 0 0 0 127 0" result="hardAlpha"/>
<feOffset dx="-22"/>
<feGaussianBlur stdDeviation="2"/>
<feComposite in2="hardAlpha" operator="arithmetic" k2="-1" k3="1"/>
<feColorMatrix type="matrix" values="0 0 0 0 0 0 0 0 0 0 0 0 0 0 0 0 0 0 0.25 0"/>
<feBlend mode="normal" in2="shape" result="effect1_innerShadow_324_282"/>
</filter>
<filter id="filter4_i_324_282" x="99.7485" y="433.453" width="5.24609" height="5.24609" filterUnits="userSpaceOnUse" color-interpolation-filters="sRGB">
<feFlood flood-opacity="0" result="BackgroundImageFix"/>
<feBlend mode="normal" in="SourceGraphic" in2="BackgroundImageFix" result="shape"/>
<feColorMatrix in="SourceAlpha" type="matrix" values="0 0 0 0 0 0 0 0 0 0 0 0 0 0 0 0 0 0 127 0" result="hardAlpha"/>
<feOffset dx="-20"/>
<feGaussianBlur stdDeviation="2"/>
<feComposite in2="hardAlpha" operator="arithmetic" k2="-1" k3="1"/>
<feColorMatrix type="matrix" values="0 0 0 0 0 0 0 0 0 0 0 0 0 0 0 0 0 0 0.25 0"/>
<feBlend mode="normal" in2="shape" result="effect1_innerShadow_324_282"/>
</filter>
<filter id="filter5_i_324_282" x="93.2188" y="433.453" width="5.24609" height="5.24609" filterUnits="userSpaceOnUse" color-interpolation-filters="sRGB">
<feFlood flood-opacity="0" result="BackgroundImageFix"/>
<feBlend mode="normal" in="SourceGraphic" in2="BackgroundImageFix" result="shape"/>
<feColorMatrix in="SourceAlpha" type="matrix" values="0 0 0 0 0 0 0 0 0 0 0 0 0 0 0 0 0 0 127 0" result="hardAlpha"/>
<feOffset dx="-19" dy="-13"/>
<feGaussianBlur stdDeviation="2"/>
<feComposite in2="hardAlpha" operator="arithmetic" k2="-1" k3="1"/>
<feColorMatrix type="matrix" values="0 0 0 0 0 0 0 0 0 0 0 0 0 0 0 0 0 0 0.25 0"/>
<feBlend mode="normal" in2="shape" result="effect1_innerShadow_324_282"/>
</filter>
<clipPath id="clip0_324_282">
<rect width="390" height="844" rx="46" fill="white"/>
</clipPath>
<clipPath id="clip1_324_282">
<rect width="24" height="24" fill="white" transform="translate(173.149 456.051) rotate(42.1248)"/>
</clipPath>
</defs>
</svg>
